HIERARCHY
ROOT Hips
{
	OFFSET 0.000000 83.214638 0.000000
	CHANNELS 6 Xposition Yposition Zposition Xrotation Yrotation Zrotation
	JOINT Pelvis
	{
		OFFSET 0.000000 0.000000 0.000000
		CHANNELS 3 Xrotation Yrotation Zrotation
		JOINT LeftUpLeg
		{
			OFFSET 8.479700 -4.795502 -0.379100
			CHANNELS 3 Xrotation Yrotation Zrotation
			JOINT LeftLeg
			{
				OFFSET 0.024144 -32.555107 0.112900
				CHANNELS 3 Xrotation Yrotation Zrotation
				JOINT LeftFoot
				{
					OFFSET -0.024144 -32.638630 -3.012600
					CHANNELS 3 Xrotation Yrotation Zrotation
					JOINT LeftToeBase
					{
						OFFSET 0.970200 -13.225400 11.864200
						CHANNELS 3 Xrotation Yrotation Zrotation
						End Site
						{
							OFFSET 0.000000 12.319262 0.000000
						}
					}
					JOINT LFootTongue
					{
						OFFSET 1.142400 -1.059800 6.665200
						CHANNELS 3 Xrotation Yrotation Zrotation
						End Site
						{
							OFFSET 0.000000 12.319262 0.000000
						}
					}
				}
				JOINT LeftPantLeg
				{
					OFFSET 0.918482 -16.533964 -2.284700
					CHANNELS 3 Xrotation Yrotation Zrotation
					End Site
					{
						OFFSET 0.350399 24.744368 0.000000
					}
				}
			}
		}
		JOINT RightUpLeg
		{
			OFFSET -8.479700 -4.795502 -0.379100
			CHANNELS 3 Xrotation Yrotation Zrotation
			JOINT RightLeg
			{
				OFFSET -0.023144 -32.555092 0.112900
				CHANNELS 3 Xrotation Yrotation Zrotation
				JOINT RightFoot
				{
					OFFSET 0.023144 -32.638641 -3.012700
					CHANNELS 3 Xrotation Yrotation Zrotation
					JOINT RightToeBase
					{
						OFFSET -0.970200 -13.225400 11.864200
						CHANNELS 3 Xrotation Yrotation Zrotation
						End Site
						{
							OFFSET 0.000000 12.319244 0.000000
						}
					}
					JOINT RFootTongue
					{
						OFFSET -1.142200 -1.059800 6.665200
						CHANNELS 3 Xrotation Yrotation Zrotation
						End Site
						{
							OFFSET 0.000000 12.319243 0.000000
						}
					}
				}
				JOINT RightPantLeg
				{
					OFFSET -0.919482 -16.533978 -2.284800
					CHANNELS 3 Xrotation Yrotation Zrotation
					End Site
					{
						OFFSET -0.350400 24.744419 0.000000
					}
				}
			}
		}
	}
	JOINT Spine
	{
		OFFSET 0.000000 7.722000 1.166200
		CHANNELS 3 Xrotation Yrotation Zrotation
		JOINT Spine1
		{
			OFFSET 0.000000 12.024101 0.248800
			CHANNELS 3 Xrotation Yrotation Zrotation
			JOINT Spine2
			{
				OFFSET 0.000000 11.502998 -0.491200
				CHANNELS 3 Xrotation Yrotation Zrotation
				JOINT Neck
				{
					OFFSET 0.000000 18.430702 -3.123100
					CHANNELS 3 Xrotation Yrotation Zrotation
					JOINT Head
					{
						OFFSET 0.000000 9.051102 1.034000
						CHANNELS 3 Xrotation Yrotation Zrotation
						JOINT HairB
						{
							OFFSET 0.208400 24.786102 24.822300
							CHANNELS 3 Xrotation Yrotation Zrotation
							End Site
							{
								OFFSET 0.000000 32.263779 0.000000
							}
						}
						JOINT HairA
						{
							OFFSET -7.081100 24.428299 23.196600
							CHANNELS 3 Xrotation Yrotation Zrotation
							End Site
							{
								OFFSET 0.000000 32.263779 0.000000
							}
						}
						JOINT Hat
						{
							OFFSET 16.728800 15.048294 -15.439601
							CHANNELS 3 Xrotation Yrotation Zrotation
							End Site
							{
								OFFSET 0.000000 32.263779 0.000000
							}
						}
					}
				}
				JOINT LeftShoulder
				{
					OFFSET 6.197800 13.665199 -4.064700
					CHANNELS 3 Xrotation Yrotation Zrotation
					JOINT LeftArm
					{
						OFFSET 7.778100 -0.187103 -1.709300
						CHANNELS 3 Xrotation Yrotation Zrotation
						JOINT LeftForeArm
						{
							OFFSET 22.049376 0.000000 0.000000
							CHANNELS 3 Xrotation Yrotation Zrotation
							JOINT LeftHand
							{
								OFFSET 23.009392 0.000000 0.000000
								CHANNELS 3 Xrotation Yrotation Zrotation
								JOINT LeftHandThumb1
								{
									OFFSET 3.507191 -2.063065 3.133727
									CHANNELS 3 Xrotation Yrotation Zrotation
									JOINT LeftHandThumb2
									{
										OFFSET 3.101337 -1.790558 1.790558
										CHANNELS 3 Xrotation Yrotation Zrotation
										JOINT LeftHandThumb3
										{
											OFFSET 3.058640 -1.765907 1.765906
											CHANNELS 3 Xrotation Yrotation Zrotation
											End Site
											{
												OFFSET -0.415260 3.926476 -0.049563
											}
										}
									}
								}
								JOINT LeftHandIndex1
								{
									OFFSET 11.334419 -0.901459 3.706815
									CHANNELS 3 Xrotation Yrotation Zrotation
									JOINT LeftHandIndex2
									{
										OFFSET 3.283112 0.000000 0.000000
										CHANNELS 3 Xrotation Yrotation Zrotation
										JOINT LeftHandIndex3
										{
											OFFSET 3.323853 0.000000 0.000000
											CHANNELS 3 Xrotation Yrotation Zrotation
											End Site
											{
												OFFSET -1.135597 3.097809 0.402452
											}
										}
									}
								}
								JOINT LeftHandMiddle1
								{
									OFFSET 11.335861 0.000000 0.000000
									CHANNELS 3 Xrotation Yrotation Zrotation
									JOINT LeftHandMiddle2
									{
										OFFSET 3.410492 0.000000 0.000000
										CHANNELS 3 Xrotation Yrotation Zrotation
										JOINT LeftHandMiddle3
										{
											OFFSET 3.312172 0.000000 0.000000
											CHANNELS 3 Xrotation Yrotation Zrotation
											End Site
											{
												OFFSET -1.150200 3.080154 0.400270
											}
										}
									}
								}
								JOINT LeftHandRing1
								{
									OFFSET 11.514786 -0.013176 -3.003090
									CHANNELS 3 Xrotation Yrotation Zrotation
									JOINT LeftHandRing2
									{
										OFFSET 3.053307 0.000000 0.000000
										CHANNELS 3 Xrotation Yrotation Zrotation
										JOINT LeftHandRing3
										{
											OFFSET 3.295807 0.000000 0.000000
											CHANNELS 3 Xrotation Yrotation Zrotation
											End Site
											{
												OFFSET -1.281006 3.013344 0.375733
											}
										}
									}
								}
								JOINT LeftHandPinky1
								{
									OFFSET 10.518692 -0.960396 -5.730441
									CHANNELS 3 Xrotation Yrotation Zrotation
									JOINT LeftHandPinky2
									{
										OFFSET 2.861649 0.000000 0.000000
										CHANNELS 3 Xrotation Yrotation Zrotation
										JOINT LeftHandPinky3
										{
											OFFSET 2.863380 0.000000 0.000000
											CHANNELS 3 Xrotation Yrotation Zrotation
											End Site
											{
												OFFSET -0.843597 2.711159 0.369971
											}
										}
									}
								}
							}
							JOINT LSleeve
							{
								OFFSET 6.676277 -0.344902 -1.011730
								CHANNELS 3 Xrotation Yrotation Zrotation
								End Site
								{
									OFFSET 0.000000 14.885353 0.000000
								}
							}
						}
					}
				}
				JOINT RightShoulder
				{
					OFFSET -6.197800 13.665199 -4.064700
					CHANNELS 3 Xrotation Yrotation Zrotation
					JOINT RightArm
					{
						OFFSET -7.778100 -0.187103 -1.709300
						CHANNELS 3 Xrotation Yrotation Zrotation
						JOINT RightForeArm
						{
							OFFSET -22.049376 0.000000 0.000000
							CHANNELS 3 Xrotation Yrotation Zrotation
							JOINT RightHand
							{
								OFFSET -23.009392 0.000000 0.000000
								CHANNELS 3 Xrotation Yrotation Zrotation
								JOINT RightHandThumb1
								{
									OFFSET -3.507191 -2.063065 3.133727
									CHANNELS 3 Xrotation Yrotation Zrotation
									JOINT RightHandThumb2
									{
										OFFSET -3.101337 -1.790558 1.790558
										CHANNELS 3 Xrotation Yrotation Zrotation
										JOINT RightHandThumb3
										{
											OFFSET -3.058640 -1.765907 1.765906
											CHANNELS 3 Xrotation Yrotation Zrotation
											End Site
											{
												OFFSET 0.415260 3.926476 -0.049563
											}
										}
									}
								}
								JOINT RightHandIndex1
								{
									OFFSET -11.334419 -0.901459 3.706815
									CHANNELS 3 Xrotation Yrotation Zrotation
									JOINT RightHandIndex2
									{
										OFFSET -3.283112 0.000000 0.000000
										CHANNELS 3 Xrotation Yrotation Zrotation
										JOINT RightHandIndex3
										{
											OFFSET -3.323853 0.000000 0.000000
											CHANNELS 3 Xrotation Yrotation Zrotation
											End Site
											{
												OFFSET 1.135597 3.097809 0.402452
											}
										}
									}
								}
								JOINT RightHandMiddle1
								{
									OFFSET -11.335861 0.000000 0.000000
									CHANNELS 3 Xrotation Yrotation Zrotation
									JOINT RightHandMiddle2
									{
										OFFSET -3.410492 0.000000 0.000000
										CHANNELS 3 Xrotation Yrotation Zrotation
										JOINT RightHandMiddle3
										{
											OFFSET -3.312172 0.000000 0.000000
											CHANNELS 3 Xrotation Yrotation Zrotation
											End Site
											{
												OFFSET 1.150200 3.080154 0.400270
											}
										}
									}
								}
								JOINT RightHandRing1
								{
									OFFSET -11.514786 -0.013176 -3.003090
									CHANNELS 3 Xrotation Yrotation Zrotation
									JOINT RightHandRing2
									{
										OFFSET -3.053307 0.000000 0.000000
										CHANNELS 3 Xrotation Yrotation Zrotation
										JOINT RightHandRing3
										{
											OFFSET -3.295807 0.000000 0.000000
											CHANNELS 3 Xrotation Yrotation Zrotation
											End Site
											{
												OFFSET 1.281006 3.013344 0.375733
											}
										}
									}
								}
								JOINT RightHandPinky1
								{
									OFFSET -10.518692 -0.960396 -5.730441
									CHANNELS 3 Xrotation Yrotation Zrotation
									JOINT RightHandPinky2
									{
										OFFSET -2.861649 0.000000 0.000000
										CHANNELS 3 Xrotation Yrotation Zrotation
										JOINT RightHandPinky3
										{
											OFFSET -2.863380 0.000000 0.000000
											CHANNELS 3 Xrotation Yrotation Zrotation
											End Site
											{
												OFFSET 0.843597 2.711159 0.369971
											}
										}
									}
								}
							}
							JOINT RSleeve
							{
								OFFSET -6.676277 -0.344902 -1.011730
								CHANNELS 3 Xrotation Yrotation Zrotation
								End Site
								{
									OFFSET 0.000000 14.885353 0.000000
								}
							}
						}
					}
				}
				JOINT Backpack
				{
					OFFSET 0.000000 -2.471497 36.677502
					CHANNELS 3 Xrotation Yrotation Zrotation
					End Site
					{
						OFFSET 0.000000 20.427315 0.000000
					}
				}
				JOINT Hood
				{
					OFFSET 0.000000 18.754097 -10.431000
					CHANNELS 3 Xrotation Yrotation Zrotation
					JOINT Hood1
					{
						OFFSET 0.000000 -5.011002 -7.685901
						CHANNELS 3 Xrotation Yrotation Zrotation
						End Site
						{
							OFFSET 0.000000 9.175140 0.000000
						}
					}
				}
				JOINT LHoodieString
				{
					OFFSET 5.250500 16.397697 3.089900
					CHANNELS 3 Xrotation Yrotation Zrotation
					JOINT LHoodieString1
					{
						OFFSET 0.257700 -6.364304 3.694600
						CHANNELS 3 Xrotation Yrotation Zrotation
						JOINT LHoodieString2
						{
							OFFSET 0.000000 -9.643799 2.679100
							CHANNELS 3 Xrotation Yrotation Zrotation
							End Site
							{
								OFFSET 0.000000 10.009018 0.000000
							}
						}
					}
				}
				JOINT RHoodieString
				{
					OFFSET -5.250500 16.397697 3.089900
					CHANNELS 3 Xrotation Yrotation Zrotation
					JOINT RHoodieString1
					{
						OFFSET -0.257700 -6.364304 3.694600
						CHANNELS 3 Xrotation Yrotation Zrotation
						JOINT RHoodieString2
						{
							OFFSET 0.000000 -9.643799 2.679100
							CHANNELS 3 Xrotation Yrotation Zrotation
							End Site
							{
								OFFSET 0.000000 10.009018 0.000000
							}
						}
					}
				}
			}
			JOINT LBackpack_Strap
			{
				OFFSET 15.223200 -7.719803 -6.610900
				CHANNELS 3 Xrotation Yrotation Zrotation
				End Site
				{
					OFFSET 0.000000 16.040596 0.000000
				}
			}
			JOINT RBackpack_Strap
			{
				OFFSET -15.223000 -7.719803 -6.610900
				CHANNELS 3 Xrotation Yrotation Zrotation
				End Site
				{
					OFFSET 0.000000 16.040596 0.000000
				}
			}
		}
	}
	JOINT BoyFacialAnim_Joint
	{
		OFFSET 1.000000 -82.208099 -1.550900
		CHANNELS 3 Xrotation Yrotation Zrotation
		End Site
		{
			OFFSET 0.000000 30.012791 0.000000
		}
	}
}
MOTION
Frames: 4
Frame Time: 0.033333
-0.582386 70.025291 350.737274 9.003862 2.220199 -1.139466 0.000001 -0.000000 -0.000000 -20.227713 8.150498 -1.573884 58.195910 -0.736968 -2.049397 -45.599040 -6.077240 7.023318 -0.000000 0.000000 -0.000000 -0.000000 0.000000 -0.000000 0.000003 0.000000 -0.000001 -53.609318 3.638554 0.222171 103.055527 2.379512 3.138045 -6.245455 0.330470 -7.112000 -0.000002 -0.000000 0.000000 -0.000002 -0.000000 0.000000 0.000001 -0.000000 0.000000 0.691358 -0.089820 -1.664722 1.385467 -0.285361 -1.233419 1.385470 -0.285360 -1.233419 2.088743 -2.039716 1.843891 -18.002383 -5.105396 4.245417 -0.000000 0.000000 0.000000 -0.000000 0.000000 0.000000 -0.000000 0.000000 0.000000 0.000001 -0.000014 0.000277 -41.019101 -38.131321 -32.667401 -0.006821 -47.474432 0.054603 11.748043 20.468593 74.390063 -18.762204 11.018189 -22.604684 4.103847 25.753505 12.906304 0.000002 0.000005 -0.000001 -2.750931 1.989414 -19.148294 0.090399 0.385040 -20.531404 -0.000004 -0.000002 -0.000006 -2.188506 -0.777311 -30.613693 -0.504268 -2.091653 -26.526281 0.000001 -0.000000 -0.000002 0.892643 3.444595 -36.473374 -1.489520 -3.515303 -46.168797 -0.000001 -0.000000 -0.000000 2.430085 1.716007 -45.866677 -0.396066 -2.347402 -20.233466 -0.000000 0.000000 -0.000000 -0.000002 0.000000 -0.000001 0.000001 -0.000013 0.000289 -13.449747 14.023376 30.847508 0.036205 66.190899 -0.104118 28.704403 19.676880 -24.590122 -23.322748 -7.345860 16.971384 2.970039 -13.955025 -3.927968 0.000002 0.000000 0.000000 -7.436525 -2.093712 12.835893 0.427571 -1.266743 34.301514 0.000001 0.000002 0.000000 -3.803732 0.442638 29.079855 -0.842614 2.502402 48.172044 0.000004 0.000001 -0.000002 -1.166422 -5.691932 43.275976 -3.304940 5.389181 58.668313 0.000001 0.000002 0.000004 -6.096681 -10.684003 54.012207 -4.703849 9.072869 64.676154 -0.000000 -0.000002 -0.000000 -0.000000 0.000000 -0.000001 -0.000001 -0.000000 -0.000000 -0.000001 -0.000000 -0.000000 -0.000001 -0.000000 -0.000000 -0.000001 -0.000000 -0.000000 -0.000001 -0.000000 -0.000000 0.000000 -0.000000 -0.000000 -0.000001 -0.000000 -0.000000 -0.000001 -0.000000 -0.000000 0.000000 -0.000000 -0.000000 -0.000000 0.000000 -0.000000 -0.000000 0.000000 -0.000000 0.000001 -0.000000 -0.000000 
-0.248997 72.015602 363.654236 8.572149 2.079593 -2.128004 -0.000001 -0.000000 -0.000000 -4.839821 3.856196 -3.356409 45.533306 0.369539 -1.576665 -33.998042 -1.869822 6.258153 -0.000001 0.000000 -0.000000 -0.000001 0.000000 -0.000000 0.000001 -0.000001 0.000000 -59.244009 2.380538 -1.453302 89.778793 2.130571 2.937361 -5.394860 -1.577359 3.045809 0.000002 0.000000 -0.000000 0.000002 0.000000 -0.000000 -0.000002 -0.000000 -0.000000 0.782468 -1.097690 -1.012523 1.591302 -2.060532 -0.413575 1.591301 -2.060532 -0.413574 1.877988 -1.392760 2.850339 -12.446262 0.082571 2.859003 -0.000000 0.000000 0.000000 -0.000000 0.000000 0.000000 -0.000000 0.000000 0.000000 0.000001 -0.000013 0.000278 -39.263916 -42.612662 -34.397437 0.004192 -45.616149 0.054205 16.299193 9.298084 71.901217 -20.570361 7.631330 -23.350653 4.091765 25.588074 12.674363 -0.000001 -0.000001 0.000002 -2.595615 1.726560 -17.216778 0.085559 0.376487 -19.963840 0.000001 -0.000000 -0.000000 -1.988673 -0.620014 -28.441338 -0.464046 -2.140545 -27.253099 0.000002 -0.000000 -0.000001 0.800276 3.342005 -36.295284 -1.525348 -3.549374 -46.755766 -0.000002 -0.000000 0.000001 1.773951 1.110736 -45.494360 -0.421271 -2.413770 -20.840826 0.000001 0.000001 -0.000002 0.000001 0.000001 0.000000 0.000001 -0.000013 0.000289 -12.369558 17.676343 29.756569 0.034565 62.893434 -0.102769 27.108707 19.146053 -24.752833 -22.504812 -8.367209 16.434333 2.674001 -14.438060 -4.040567 0.000002 -0.000000 -0.000000 -7.429622 -2.077857 12.589971 0.435690 -1.277594 34.658798 0.000000 -0.000000 0.000000 -3.688599 0.242630 29.061547 -0.833570 2.494287 47.975754 0.000003 0.000001 -0.000000 -1.181727 -5.658565 43.482811 -3.302231 5.387540 58.638212 0.000001 0.000003 0.000002 -6.372199 -10.496785 53.876157 -4.824486 9.127743 65.457685 -0.000000 0.000000 -0.000003 0.000000 -0.000002 -0.000000 -0.000000 0.000000 0.000000 -0.000000 0.000000 0.000000 -0.000000 0.000000 0.000000 -0.000000 0.000000 0.000000 -0.000000 0.000000 0.000000 0.000001 0.000000 0.000000 -0.000000 0.000000 0.000000 -0.000000 0.000000 0.000000 0.000001 0.000000 0.000000 0.000000 0.000000 -0.000000 0.000000 0.000000 -0.000000 -0.000001 -0.000000 -0.000000 
0.177207 74.454910 376.463928 9.155046 0.626239 -2.885349 -0.000001 -0.000000 0.000000 3.431370 -7.637721 -5.596446 34.762289 -0.652125 -1.314014 -7.995688 12.819626 -1.150596 0.000002 -0.000000 -0.000000 0.000002 -0.000000 0.000000 -0.000002 -0.000000 -0.000001 -59.215664 0.054137 -1.343678 69.644229 1.747370 2.476865 -7.805037 -4.749016 11.605909 0.000001 -0.000000 -0.000001 0.000001 -0.000000 -0.000001 0.000001 -0.000000 0.000000 0.651524 -1.641215 -0.244346 1.331256 -3.121072 0.348569 1.331249 -3.121074 0.348569 1.897572 -0.868912 3.365364 -11.801862 3.550120 2.336009 -0.000000 -0.000000 -0.000000 -0.000000 -0.000000 -0.000000 -0.000000 -0.000000 -0.000000 0.000002 -0.000013 0.000278 -35.904204 -44.529155 -34.926739 0.003111 -45.256751 0.040058 19.795186 3.470770 58.402229 -22.429926 4.287659 -24.233568 4.499472 25.160583 13.100821 0.000001 0.000002 -0.000001 -3.542578 -0.279178 -19.382019 0.080629 0.365348 -19.220776 0.000000 0.000001 -0.000002 -1.899090 -0.462043 -28.475663 -0.616788 -2.352951 -30.168242 -0.000001 -0.000000 0.000000 0.917622 3.529146 -35.857499 -1.584191 -3.603766 -47.701853 -0.000000 -0.000001 -0.000002 1.122177 0.474326 -44.688514 -0.462996 -2.518122 -21.803777 0.000001 -0.000001 -0.000002 -0.000001 0.000000 0.000001 0.000002 -0.000012 0.000289 -13.552852 20.465028 29.568890 0.015731 60.460220 -0.082376 26.756250 20.633407 -22.606661 -22.191787 -8.676267 16.291447 2.648623 -14.479904 -4.050147 -0.000002 0.000001 -0.000000 -7.436942 -2.040275 12.560975 0.443180 -1.287385 34.983679 -0.000001 0.000001 0.000005 -3.788642 0.395643 29.276937 -0.821489 2.483342 47.712181 0.000001 0.000000 0.000005 -1.325615 -5.480051 43.781291 -3.283614 5.376195 58.435226 -0.000001 0.000001 -0.000003 -6.670990 -10.287576 53.798012 -4.892470 9.157666 65.895794 -0.000000 -0.000001 -0.000000 -0.000002 0.000001 -0.000000 0.000000 0.000001 -0.000000 0.000000 0.000001 -0.000000 0.000000 0.000001 -0.000000 0.000000 0.000001 -0.000000 0.000000 0.000001 -0.000000 0.000000 0.000001 -0.000000 0.000000 0.000001 -0.000000 0.000000 0.000001 -0.000000 0.000000 0.000001 -0.000000 0.000000 -0.000000 -0.000000 0.000000 -0.000000 -0.000000 -0.000001 -0.000000 0.000000 
0.282612 77.255905 389.667847 11.003364 -1.715760 -3.316283 0.000000 -0.000000 0.000000 8.466626 -13.623889 -5.409841 25.493980 -0.182592 -0.949476 15.178837 13.974632 -12.114170 -0.000002 -0.000000 -0.000001 -0.000002 -0.000000 -0.000000 -0.000001 -0.000002 0.000002 -54.057853 -1.915930 2.918656 31.536653 0.656447 1.199299 -2.318068 -2.120553 4.493642 0.000000 0.000000 -0.000000 0.000000 0.000000 -0.000000 0.000001 0.000000 -0.000000 0.215859 -1.400377 0.496183 0.439993 -3.058607 0.864635 0.439993 -3.058613 0.864635 2.012274 -0.587453 3.652333 -13.004305 5.243126 2.138772 0.000000 0.000000 0.000000 0.000000 0.000000 0.000000 0.000000 0.000000 0.000000 0.000001 -0.000014 0.000278 -30.962631 -41.771671 -33.486881 -0.033476 -49.262811 -0.015070 20.110551 5.428971 47.682674 -23.446620 2.533885 -24.766862 3.875752 25.403340 11.965076 0.000001 0.000000 0.000002 -3.784796 -0.628417 -23.544319 0.081535 0.366315 -19.280914 -0.000002 0.000001 -0.000003 -1.788904 -0.288375 -28.603478 -0.770384 -2.556460 -33.084484 0.000001 -0.000002 -0.000004 0.611658 3.136903 -35.332381 -1.624839 -3.640038 -48.346217 -0.000001 -0.000001 -0.000002 0.538849 -0.096025 -42.998069 -0.489629 -2.581224 -22.390571 -0.000000 -0.000001 0.000001 0.000000 0.000001 0.000000 0.000001 -0.000013 0.000289 -17.080748 20.736798 30.537742 -0.049787 61.594858 -0.007388 26.883761 23.049978 -22.075332 -21.937355 -8.788871 16.320378 2.703628 -14.392409 -4.027996 0.000002 0.000000 -0.000000 -7.426922 -2.089437 12.600312 0.449761 -1.295844 35.266271 -0.000001 0.000001 0.000000 -3.830310 0.458477 29.375493 -0.811488 2.474214 47.493539 0.000000 0.000000 0.000003 -1.375986 -5.419411 43.850163 -3.266804 5.365869 58.251664 0.000000 0.000001 0.000002 -6.916549 -10.122913 53.511827 -4.927507 9.172854 66.121115 -0.000001 0.000001 0.000000 0.000001 -0.000001 0.000000 -0.000001 -0.000000 0.000000 -0.000001 -0.000000 0.000000 -0.000001 -0.000000 0.000000 -0.000001 -0.000000 0.000000 -0.000001 -0.000000 0.000000 -0.000000 -0.000000 -0.000000 -0.000001 -0.000000 0.000000 -0.000001 -0.000000 0.000000 -0.000000 -0.000000 -0.000000 0.000000 -0.000000 -0.000000 0.000000 -0.000000 -0.000000 0.000000 -0.000000 0.000000 
